<svg width="100" height="90" viewBox="0 0 100 90" fill="none" xmlns="http://www.w3.org/2000/svg">
<path d="M4.632 49.18C3.824 49.18 3.112 49.004 2.496 48.652C1.888 48.292 1.412 47.796 1.068 47.164C0.732 46.532 0.564 45.804 0.564 44.98C0.564 44.372 0.664 43.816 0.864 43.312C1.072 42.8 1.356 42.356 1.716 41.98C2.084 41.604 2.512 41.312 3 41.104C3.496 40.896 4.036 40.792 4.62 40.792C4.948 40.792 5.316 40.832 5.724 40.912C6.132 40.984 6.536 41.136 6.936 41.368L6.984 43.108H6.24L6 41.716C5.784 41.596 5.572 41.512 5.364 41.464C5.164 41.416 4.968 41.392 4.776 41.392C4.24 41.392 3.752 41.528 3.312 41.8C2.872 42.072 2.52 42.476 2.256 43.012C2 43.54 1.872 44.196 1.872 44.98C1.872 45.764 1.992 46.424 2.232 46.96C2.472 47.496 2.804 47.9 3.228 48.172C3.66 48.444 4.148 48.58 4.692 48.58C4.924 48.58 5.16 48.556 5.4 48.508C5.648 48.452 5.888 48.368 6.12 48.256L6.36 46.864H7.104L7.056 48.604C6.688 48.804 6.296 48.948 5.88 49.036C5.472 49.132 5.056 49.18 4.632 49.18ZM10.8583 49.156C10.3943 49.156 9.95031 49.048 9.52631 48.832C9.11031 48.608 8.77031 48.276 8.50631 47.836C8.24231 47.388 8.11031 46.836 8.11031 46.18C8.11031 45.516 8.24231 44.96 8.50631 44.512C8.77031 44.056 9.11031 43.716 9.52631 43.492C9.95031 43.26 10.3943 43.144 10.8583 43.144C11.3223 43.144 11.7623 43.26 12.1783 43.492C12.6023 43.716 12.9463 44.056 13.2103 44.512C13.4823 44.96 13.6183 45.516 13.6183 46.18C13.6183 46.836 13.4823 47.388 13.2103 47.836C12.9463 48.276 12.6023 48.608 12.1783 48.832C11.7623 49.048 11.3223 49.156 10.8583 49.156ZM10.8583 48.616C11.3783 48.616 11.7783 48.412 12.0583 48.004C12.3383 47.588 12.4783 46.98 12.4783 46.18C12.4783 45.372 12.3383 44.756 12.0583 44.332C11.7783 43.908 11.3783 43.696 10.8583 43.696C10.3383 43.696 9.93831 43.908 9.65831 44.332C9.38631 44.756 9.25031 45.372 9.25031 46.18C9.25031 46.98 9.38631 47.588 9.65831 48.004C9.93831 48.412 10.3383 48.616 10.8583 48.616ZM17.8283 43.768V43.3H20.1083V43.768L19.4483 43.924L17.5043 49.072H16.9883L14.8043 43.888L14.1562 43.768V43.3H17.0603V43.768L16.0043 43.924L17.4683 47.764L18.8003 43.936L17.8283 43.768ZM20.6348 49V48.568L21.5348 48.4C21.5428 48.096 21.5468 47.768 21.5468 47.416C21.5548 47.056 21.5588 46.744 21.5588 46.48V45.916C21.5588 45.588 21.5548 45.316 21.5468 45.1C21.5468 44.876 21.5388 44.644 21.5228 44.404L20.5628 44.296V43.876L22.4108 43.144L22.5908 43.264L22.5548 44.896V46.48C22.5548 46.744 22.5548 47.056 22.5548 47.416C22.5628 47.768 22.5708 48.096 22.5788 48.4L23.4188 48.568V49H20.6348ZM22.0508 41.824C21.8268 41.824 21.6348 41.752 21.4748 41.608C21.3228 41.464 21.2468 41.28 21.2468 41.056C21.2468 40.824 21.3228 40.64 21.4748 40.504C21.6348 40.36 21.8268 40.288 22.0508 40.288C22.2748 40.288 22.4628 40.36 22.6148 40.504C22.7748 40.64 22.8548 40.824 22.8548 41.056C22.8548 41.28 22.7748 41.464 22.6148 41.608C22.4628 41.752 22.2748 41.824 22.0508 41.824ZM28.4211 49.18C27.6131 49.18 26.9011 49.004 26.2851 48.652C25.6771 48.292 25.2011 47.796 24.8571 47.164C24.5211 46.532 24.3531 45.804 24.3531 44.98C24.3531 44.372 24.4531 43.816 24.6531 43.312C24.8611 42.8 25.1451 42.356 25.5051 41.98C25.8731 41.604 26.3011 41.312 26.7891 41.104C27.2851 40.896 27.8251 40.792 28.4091 40.792C28.7371 40.792 29.1051 40.832 29.5131 40.912C29.9211 40.984 30.3251 41.136 30.7251 41.368L30.7731 43.108H30.0291L29.7891 41.716C29.5731 41.596 29.3611 41.512 29.1531 41.464C28.9531 41.416 28.7571 41.392 28.5651 41.392C28.0291 41.392 27.5411 41.528 27.1011 41.8C26.6611 42.072 26.3091 42.476 26.0451 43.012C25.7891 43.54 25.6611 44.196 25.6611 44.98C25.6611 45.764 25.7811 46.424 26.0211 46.96C26.2611 47.496 26.5931 47.9 27.0171 48.172C27.4491 48.444 27.9371 48.58 28.4811 48.58C28.7131 48.58 28.9491 48.556 29.1891 48.508C29.4371 48.452 29.6771 48.368 29.9091 48.256L30.1491 46.864H30.8931L30.8451 48.604C30.4771 48.804 30.0851 48.948 29.6691 49.036C29.2611 49.132 28.8451 49.18 28.4211 49.18ZM34.6474 49.156C34.1834 49.156 33.7394 49.048 33.3154 48.832C32.8994 48.608 32.5594 48.276 32.2954 47.836C32.0314 47.388 31.8994 46.836 31.8994 46.18C31.8994 45.516 32.0314 44.96 32.2954 44.512C32.5594 44.056 32.8994 43.716 33.3154 43.492C33.7394 43.26 34.1834 43.144 34.6474 43.144C35.1114 43.144 35.5514 43.26 35.9674 43.492C36.3914 43.716 36.7354 44.056 36.9994 44.512C37.2714 44.96 37.4074 45.516 37.4074 46.18C37.4074 46.836 37.2714 47.388 36.9994 47.836C36.7354 48.276 36.3914 48.608 35.9674 48.832C35.5514 49.048 35.1114 49.156 34.6474 49.156ZM34.6474 48.616C35.1674 48.616 35.5674 48.412 35.8474 48.004C36.1274 47.588 36.2674 46.98 36.2674 46.18C36.2674 45.372 36.1274 44.756 35.8474 44.332C35.5674 43.908 35.1674 43.696 34.6474 43.696C34.1274 43.696 33.7274 43.908 33.4474 44.332C33.1754 44.756 33.0394 45.372 33.0394 46.18C33.0394 46.98 33.1754 47.588 33.4474 48.004C33.7274 48.412 34.1274 48.616 34.6474 48.616ZM38.4253 49V48.568L39.3133 48.4C39.3213 48.096 39.3253 47.768 39.3253 47.416C39.3333 47.064 39.3373 46.752 39.3373 46.48V45.904C39.3373 45.576 39.3333 45.304 39.3253 45.088C39.3253 44.872 39.3173 44.644 39.3013 44.404L38.3533 44.296V43.876L40.0333 43.144L40.2133 43.264L40.3093 44.236C40.5893 43.916 40.9173 43.656 41.2933 43.456C41.6693 43.248 42.0413 43.144 42.4093 43.144C42.7853 43.144 43.0893 43.232 43.3213 43.408C43.5613 43.584 43.7333 43.872 43.8373 44.272C44.1413 43.896 44.4813 43.616 44.8573 43.432C45.2333 43.24 45.6173 43.144 46.0093 43.144C46.4973 43.144 46.8733 43.308 47.1373 43.636C47.4093 43.964 47.5453 44.5 47.5453 45.244V46.48C47.5453 46.752 47.5453 47.064 47.5453 47.416C47.5533 47.768 47.5613 48.096 47.5693 48.4L48.4093 48.568V49H45.6253V48.568L46.5133 48.4C46.5213 48.104 46.5253 47.78 46.5253 47.428C46.5333 47.068 46.5373 46.752 46.5373 46.48V45.436C46.5373 44.876 46.4573 44.5 46.2973 44.308C46.1373 44.108 45.8813 44.008 45.5293 44.008C45.2813 44.008 45.0253 44.064 44.7613 44.176C44.5053 44.288 44.2253 44.484 43.9213 44.764C43.9293 44.852 43.9333 44.948 43.9333 45.052C43.9413 45.148 43.9453 45.252 43.9453 45.364V46.48C43.9453 46.752 43.9453 47.064 43.9453 47.416C43.9533 47.768 43.9613 48.096 43.9693 48.4L44.8093 48.568V49H42.0253V48.568L42.9133 48.4C42.9213 48.104 42.9253 47.78 42.9253 47.428C42.9333 47.068 42.9373 46.752 42.9373 46.48V45.46C42.9373 44.916 42.8613 44.54 42.7093 44.332C42.5573 44.116 42.3053 44.008 41.9533 44.008C41.6813 44.008 41.4213 44.064 41.1733 44.176C40.9253 44.288 40.6533 44.472 40.3573 44.728V46.48C40.3573 46.744 40.3573 47.056 40.3573 47.416C40.3653 47.768 40.3733 48.096 40.3813 48.4L41.2093 48.568V49H38.4253ZM51.9897 43.696C51.7657 43.696 51.5377 43.76 51.3057 43.888C51.0817 44.016 50.8857 44.22 50.7177 44.5C50.5577 44.78 50.4537 45.152 50.4057 45.616H52.5897C52.8777 45.616 53.0657 45.556 53.1537 45.436C53.2497 45.316 53.2977 45.168 53.2977 44.992C53.2977 44.76 53.2377 44.548 53.1177 44.356C53.0057 44.156 52.8497 43.996 52.6497 43.876C52.4577 43.756 52.2377 43.696 51.9897 43.696ZM51.9777 49.156C51.1697 49.156 50.5217 48.896 50.0337 48.376C49.5457 47.848 49.3017 47.124 49.3017 46.204C49.3017 45.588 49.4257 45.052 49.6737 44.596C49.9297 44.14 50.2657 43.784 50.6817 43.528C51.1057 43.272 51.5657 43.144 52.0617 43.144C52.4777 43.144 52.8537 43.236 53.1897 43.42C53.5257 43.604 53.7937 43.868 53.9937 44.212C54.1937 44.548 54.2937 44.96 54.2937 45.448C54.2937 45.584 54.2857 45.712 54.2697 45.832C54.2537 45.944 54.2337 46.04 54.2097 46.12H50.3817C50.3977 46.856 50.5817 47.416 50.9337 47.8C51.2857 48.184 51.7497 48.376 52.3257 48.376C52.7097 48.376 53.0297 48.3 53.2857 48.148C53.5417 47.988 53.7777 47.784 53.9937 47.536L54.2817 47.764C54.0577 48.188 53.7537 48.528 53.3697 48.784C52.9857 49.032 52.5217 49.156 51.9777 49.156ZM55.3829 49V48.568L56.2469 48.412C56.2549 48.108 56.2589 47.78 56.2589 47.428C56.2669 47.068 56.2709 46.752 56.2709 46.48V45.904C56.2709 45.576 56.2669 45.304 56.2589 45.088C56.2589 44.872 56.2509 44.644 56.2349 44.404L55.2869 44.296V43.876L56.9669 43.144L57.1469 43.264L57.2789 44.68C57.4789 44.2 57.7349 43.824 58.0469 43.552C58.3669 43.28 58.6869 43.144 59.0069 43.144C59.1909 43.144 59.3629 43.184 59.5229 43.264C59.6829 43.344 59.7989 43.452 59.8709 43.588C59.8709 44.172 59.6349 44.464 59.1629 44.464C59.0269 44.464 58.8989 44.44 58.7789 44.392C58.6589 44.336 58.5429 44.26 58.4309 44.164L58.2869 44.032C58.0469 44.208 57.8469 44.424 57.6869 44.68C57.5269 44.936 57.3949 45.236 57.2909 45.58V46.48C57.2909 46.744 57.2909 47.052 57.2909 47.404C57.2989 47.756 57.3069 48.084 57.3149 48.388L58.2989 48.568V49H55.3829ZM64.8162 49.12C64.5282 49.12 64.2882 49.036 64.0962 48.868C63.9042 48.7 63.7842 48.476 63.7362 48.196C63.4082 48.516 63.1202 48.756 62.8722 48.916C62.6242 49.076 62.3242 49.156 61.9722 49.156C61.5322 49.156 61.1522 49.032 60.8322 48.784C60.5202 48.528 60.3642 48.152 60.3642 47.656C60.3642 47.424 60.4162 47.208 60.5202 47.008C60.6322 46.808 60.8322 46.612 61.1202 46.42C61.4082 46.228 61.8202 46.036 62.3562 45.844C62.5402 45.78 62.7522 45.712 62.9922 45.64C63.2322 45.568 63.4722 45.504 63.7122 45.448V45.148C63.7122 44.564 63.6242 44.176 63.4482 43.984C63.2722 43.792 62.9842 43.696 62.5842 43.696C62.4962 43.696 62.3962 43.7 62.2842 43.708C62.1802 43.716 62.0642 43.736 61.9362 43.768L61.7082 44.548C61.5962 44.932 61.3882 45.124 61.0842 45.124C60.7482 45.124 60.5602 44.96 60.5202 44.632C60.6322 44.176 60.8962 43.816 61.3122 43.552C61.7362 43.28 62.2522 43.144 62.8602 43.144C63.4922 43.144 63.9602 43.304 64.2642 43.624C64.5682 43.936 64.7202 44.472 64.7202 45.232V47.788C64.7202 48.044 64.7602 48.228 64.8402 48.34C64.9202 48.444 65.0242 48.496 65.1522 48.496C65.2562 48.496 65.3442 48.472 65.4162 48.424C65.4882 48.376 65.5562 48.312 65.6202 48.232L65.8602 48.496C65.7162 48.728 65.5562 48.892 65.3802 48.988C65.2122 49.076 65.0242 49.12 64.8162 49.12ZM61.4322 47.476C61.4322 47.796 61.5242 48.024 61.7082 48.16C61.8922 48.296 62.1202 48.364 62.3922 48.364C62.5122 48.364 62.6242 48.348 62.7282 48.316C62.8402 48.284 62.9722 48.224 63.1242 48.136C63.2762 48.04 63.4722 47.904 63.7122 47.728V45.892C63.5042 45.948 63.3002 46.012 63.1002 46.084C62.9002 46.148 62.7362 46.204 62.6082 46.252C62.2642 46.388 62.0082 46.528 61.8402 46.672C61.6722 46.816 61.5602 46.956 61.5042 47.092C61.4562 47.228 61.4322 47.356 61.4322 47.476ZM67.5497 46.18C67.5497 46.964 67.7057 47.544 68.0177 47.92C68.3377 48.288 68.7377 48.472 69.2177 48.472C69.4817 48.472 69.7137 48.42 69.9137 48.316C70.1217 48.204 70.3377 48.024 70.5617 47.776V44.452C70.2897 44.212 70.0457 44.048 69.8297 43.96C69.6137 43.872 69.4057 43.828 69.2057 43.828C68.9097 43.828 68.6337 43.912 68.3777 44.08C68.1297 44.24 67.9297 44.496 67.7777 44.848C67.6257 45.192 67.5497 45.636 67.5497 46.18ZM70.6817 49.12L70.5977 48.292C70.3897 48.564 70.1497 48.776 69.8777 48.928C69.6137 49.08 69.2937 49.156 68.9177 49.156C68.4297 49.156 68.0017 49.032 67.6337 48.784C67.2657 48.536 66.9777 48.192 66.7697 47.752C66.5697 47.304 66.4697 46.788 66.4697 46.204C66.4697 45.588 66.5817 45.052 66.8057 44.596C67.0297 44.14 67.3337 43.784 67.7177 43.528C68.1017 43.272 68.5377 43.144 69.0257 43.144C69.3057 43.144 69.5737 43.2 69.8297 43.312C70.0937 43.424 70.3497 43.628 70.5977 43.924V41.212L69.5777 41.092V40.672L71.4497 40.132L71.6177 40.228L71.5697 41.932V48.424L72.5417 48.568V49L70.6817 49.12ZM75.9663 43.696C75.7423 43.696 75.5143 43.76 75.2823 43.888C75.0583 44.016 74.8623 44.22 74.6943 44.5C74.5343 44.78 74.4303 45.152 74.3823 45.616H76.5663C76.8543 45.616 77.0423 45.556 77.1303 45.436C77.2263 45.316 77.2743 45.168 77.2743 44.992C77.2743 44.76 77.2143 44.548 77.0943 44.356C76.9823 44.156 76.8263 43.996 76.6263 43.876C76.4343 43.756 76.2143 43.696 75.9663 43.696ZM75.9543 49.156C75.1463 49.156 74.4983 48.896 74.0103 48.376C73.5223 47.848 73.2783 47.124 73.2783 46.204C73.2783 45.588 73.4023 45.052 73.6503 44.596C73.9063 44.14 74.2423 43.784 74.6583 43.528C75.0823 43.272 75.5423 43.144 76.0383 43.144C76.4543 43.144 76.8303 43.236 77.1663 43.42C77.5023 43.604 77.7703 43.868 77.9703 44.212C78.1703 44.548 78.2703 44.96 78.2703 45.448C78.2703 45.584 78.2623 45.712 78.2463 45.832C78.2303 45.944 78.2103 46.04 78.1863 46.12H74.3583C74.3743 46.856 74.5583 47.416 74.9103 47.8C75.2623 48.184 75.7263 48.376 76.3023 48.376C76.6863 48.376 77.0063 48.3 77.2623 48.148C77.5183 47.988 77.7543 47.784 77.9703 47.536L78.2583 47.764C78.0343 48.188 77.7303 48.528 77.3463 48.784C76.9623 49.032 76.4983 49.156 75.9543 49.156Z" fill="#9F5F80"/>
<path d="M81.2368 62.9571C71.2819 76.9974 51.7061 80.2321 37.5104 70.167C23.3147 60.1019 19.8892 40.5586 29.8441 26.5183C39.7991 12.478 59.3749 9.24332 73.5705 19.3084C87.7662 29.3736 91.1918 48.9169 81.2368 62.9571Z" stroke="#9F5F80"/>
<path d="M81.2368 62.9571C71.2819 76.9974 51.7061 80.2321 37.5104 70.167C23.3147 60.1019 19.8892 40.5586 29.8441 26.5183C39.7991 12.478 59.3749 9.24332 73.5705 19.3084C87.7662 29.3736 91.1918 48.9169 81.2368 62.9571Z" stroke="url(#paint0_radial)"/>
<path d="M30.5 18L32.4084 22.8369H38.584L33.5878 25.8262L35.4962 30.6631L30.5 27.6738L25.5038 30.6631L27.4122 25.8262L22.416 22.8369H28.5916L30.5 18Z" fill="#9F5F80"/>
<path d="M46.5 10L48.4084 14.8369H54.584L49.5878 17.8262L51.4962 22.6631L46.5 19.6738L41.5038 22.6631L43.4122 17.8262L38.416 14.8369H44.5916L46.5 10Z" fill="#9F5F80"/>
<defs>
<radialGradient id="paint0_radial" cx="0" cy="0" r="1" gradientUnits="userSpaceOnUse" gradientTransform="translate(29.7467 25.7912) rotate(40.1324) scale(64.2247 74.7292)">
<stop stop-color="white"/>
<stop offset="0.40625" stop-color="white"/>
<stop offset="1" stop-color="white" stop-opacity="0"/>
</radialGradient>
</defs>
</svg>
